<svg xmlns="http://www.w3.org/2000/svg" xmlns:xlink="http://www.w3.org/1999/xlink" id="Layer_1" viewBox="0 0 121.7 85.7"><defs><style>      .st0 {        fill: url(#linear-gradient2);      }      .st1 {        fill: url(#linear-gradient1);      }      .st2 {        fill: url(#linear-gradient);      }    </style><linearGradient id="linear-gradient" x1="-13.2" y1="74.8" x2="71.7" y2="1.8" gradientUnits="userSpaceOnUse"><stop offset="0" stop-color="#e44197"></stop><stop offset="1" stop-color="#f27180"></stop></linearGradient><linearGradient id="linear-gradient1" x1="4.3" y1="95.2" x2="89.3" y2="22.3" xlink:href="#linear-gradient"></linearGradient><linearGradient id="linear-gradient2" x1="18.5" y1="111.7" x2="103.5" y2="38.8" xlink:href="#linear-gradient"></linearGradient></defs><path class="st2" d="M16.5,85.7H0L18.9,9.8C20.4,4,25.5,0,31.4,0h16.5l-18.9,75.9c-1.4,5.7-6.6,9.8-12.5,9.8Z"></path><path class="st1" d="M65.3,85.7h-26.6S57.6,9.8,57.6,9.8C59.1,4,64.2,0,70.1,0h16.5s-21.4,85.7-21.4,85.7Z"></path><path class="st0" d="M93.9,85.7h-16.5S98.8,0,98.8,0h10.1c8.4,0,14.5,7.9,12.5,16l-14.9,59.9c-1.4,5.7-6.6,9.8-12.5,9.8Z"></path></svg>